<svg id="e85yxbenGao1" xmlns="http://www.w3.org/2000/svg" fill="white" xmlns:xlink="http://www.w3.org/1999/xlink" viewBox="0 0 86 83" shape-rendering="geometricPrecision" text-rendering="geometricPrecision" project-id="7faa8deb40cf47ac913279f813cd7ff2" export-id="d2f6e8e631024a97a5283d233f727978" cached="false"><g transform="translate(-7.000066-8.50013)"><path d="M92.091,24.334c-.057-.081-.115-.162-.172-.243-.764-1.079-2.256-1.338-3.338-.579-7.917,5.555-15.834,11.109-23.751,16.664-.687-1.122-1.655-2.04-2.808-2.67L80.467,14.747c.864-1.066.66-2.638-.446-3.448l-.24-.176c-1.067-.782-2.564-.554-3.35.51L57.963,36.624c-1.842.117-3.537.862-4.802,2.115-1.248-2.434-3.782-4.102-6.7-4.102-1.53,0-2.995.474-4.22,1.309-.904-.38-1.887-.581-2.905-.581-1.178,0-2.311.271-3.329.777-1.018-.507-2.151-.777-3.329-.777-2.647,0-5.035,1.418-6.376,3.569-2.061-.348-4.775.501-5.763,2.198-.936-.413-1.957-.633-3.009-.633-4.148,0-7.524,3.375-7.524,7.524c0,.028.008.053.008.08h-2.546c.034,16.474,5.916,30.539,20.504,36.217h-.031v3.107c0,1.057.857,1.915,1.915,1.915h27.926c1.058,0,1.915-.857,1.915-1.915v-3.107h-.031c14.588-5.678,20.47-19.743,20.504-36.217h-2.595c-.283-3.8-3.372-6.813-7.213-6.944L91.421,27.746c1.157-.737,1.462-2.292.67-3.412ZM43.818,81.998c-23.086,0-29.908-14.715-31.123-28.882h62.246c-1.215,14.167-8.036,28.882-31.123,28.882ZM74.232,48.102h-60.875c-.001-.027-.007-.053-.007-.08c0-2.309,1.872-4.181,4.181-4.181c1.322,0,2.486.625,3.252,1.583c1.886-3.223,5.255-3.483,6.819-3.263.331,0,.649.048.958.121.296-2.019,2.018-3.574,4.12-3.574c1.365,0,2.566.664,3.329,1.676.763-1.012,1.964-1.676,3.329-1.676c1.374,0,2.582.672,3.344,1.695.666-1.427,2.103-2.422,3.781-2.422c2.309,0,4.181,1.872,4.181,4.181.364-.098.744-.137,1.119-.137c1.399,0,2.718.54,2.798.546.612-1.549,2.115-2.649,3.882-2.649c2.237,0,4.049,1.762,4.16,3.972.167-.02.332-.051.505-.051c1.619,0,3.007.93,3.701,2.275.764-.992,1.951-1.641,3.3-1.641c2.117-.002,3.85,1.581,4.123,3.625Z"/></g></svg>
